<?xml version="1.0" standalone="no"?>
<!DOCTYPE svg PUBLIC "-//W3C//DTD SVG 20010904//EN"
 "http://www.w3.org/TR/2001/REC-SVG-20010904/DTD/svg10.dtd">
<svg version="1.0" xmlns="http://www.w3.org/2000/svg"
 width="1254.000000pt" height="1254.000000pt" viewBox="0 0 1254.000000 1254.000000"
 preserveAspectRatio="xMidYMid meet">

<g transform="translate(0.000000,1254.000000) scale(0.100000,-0.100000)"
fill="#aaaaaa" stroke="none">
<path d="M2580 10319 c0 -13 117 -178 283 -399 l282 -377 200 -52 c109 -29
200 -53 201 -54 39 -64 472 -742 899 -1407 309 -481 587 -915 618 -965 l57
-90 -1136 -3 -1136 -2 -22 -27 c-11 -15 -83 -98 -158 -184 -86 -98 -138 -165
-138 -179 0 -13 35 -62 86 -120 l86 -99 382 -3 c209 -2 832 -3 1383 -2 l1003
2 66 -104 66 -103 -54 -78 -53 -78 -1395 -5 -1395 -5 -93 -102 c-62 -68 -92
-109 -92 -125 0 -17 49 -79 162 -206 l162 -182 1129 0 c940 0 1128 -2 1124
-13 -7 -17 -133 -211 -485 -746 -85 -130 -248 -378 -362 -551 -114 -173 -273
-416 -355 -540 -700 -1064 -835 -1272 -835 -1290 0 -20 1 -20 863 -19 l862 0
61 102 c34 56 129 214 213 351 83 137 151 259 151 271 0 20 -10 23 -142 45
-79 12 -144 24 -146 26 -7 5 21 50 281 454 143 223 296 461 340 530 122 190
237 369 419 650 91 140 195 302 232 359 61 95 68 102 80 85 7 -11 87 -134 176
-274 404 -632 662 -1033 893 -1390 138 -212 252 -392 254 -401 5 -18 11 -17
-169 -45 -105 -17 -108 -18 -108 -43 0 -16 48 -106 121 -226 67 -110 162 -266
211 -348 l90 -147 854 0 c848 0 854 0 854 20 0 11 -39 80 -87 153 -47 72 -161
247 -253 387 -375 573 -826 1275 -1517 2355 l-154 240 1129 3 1130 2 161 184
c101 116 161 192 161 206 0 13 -36 62 -92 125 l-93 104 -1391 0 -1392 1 -51
80 c-28 45 -51 83 -51 85 0 7 101 168 118 187 13 16 86 17 1046 17 567 0 1186
1 1376 1 l345 1 80 95 c48 58 81 106 83 122 2 22 -15 47 -85 127 -48 56 -119
138 -157 183 l-69 82 -1129 0 c-620 0 -1128 4 -1128 8 0 13 249 405 805 1267
123 192 448 699 683 1068 48 75 85 122 100 128 13 5 88 25 165 45 78 19 158
39 178 45 32 8 54 33 190 216 85 114 211 284 281 378 75 99 128 179 128 193
l0 22 -1034 0 -1034 0 -149 -227 c-308 -469 -353 -540 -353 -559 0 -18 14 -22
128 -38 70 -11 130 -22 134 -25 4 -4 -29 -63 -73 -131 -109 -168 -436 -666
-718 -1095 -126 -192 -310 -473 -408 -622 -98 -150 -181 -273 -184 -273 -6 0
-104 148 -449 680 -81 124 -240 369 -355 545 -420 644 -575 887 -570 895 2 4
61 15 130 25 124 18 125 18 125 45 0 18 -54 109 -161 271 -88 134 -200 304
-247 376 l-87 133 -1037 0 -1038 0 0 -21z"/>
</g>
</svg>
